<?xml version="1.0" encoding="UTF-8"?>
<svg id="_レイヤー_2" data-name="レイヤー 2" xmlns="http://www.w3.org/2000/svg" viewBox="0 0 38.64 38.64">
  <defs>
    <style>
      .cls-1 {
        fill: none;
      }

      .cls-2 {
        fill: #fff;
      }
    </style>
  </defs>
  <g id="_レイヤー_1-2" data-name="レイヤー 1">
    <g>
      <line class="cls-1" x1="18.61" y1="20.02" x2=".99" y2="37.64"/>
      <line class="cls-1" x1="37.63" y1="1" x2="20.02" y2="18.61"/>
      <path class="cls-2" d="m38.34,36.93c.39.39.39,1.02,0,1.41-.2.2-.45.3-.71.3s-.51-.1-.7-.3l-17.61-17.61L1.7,38.34c-.19.2-.45.3-.71.3s-.51-.1-.7-.3c-.39-.39-.39-1.02,0-1.41l17.62-17.61L.29,1.7C-.1,1.31-.1.68.29.29.68-.1,1.31-.1,1.7.29l17.62,17.62L36.93.29c.39-.39,1.02-.39,1.41,0,.39.39.39,1.02,0,1.41l-17.61,17.62,17.61,17.61Z"/>
    </g>
  </g>
</svg>