<?xml version="1.0" encoding="UTF-8"?>
<svg id="_レイヤー_2" data-name="レイヤー 2" xmlns="http://www.w3.org/2000/svg" viewBox="0 0 34.22 34.22">
  <defs>
    <style>
      .cls-1 {
        fill: #fff;
      }
    </style>
  </defs>
  <g id="_レイヤー_1-2" data-name="レイヤー 1">
    <g>
      <path class="cls-1" d="m33.84,31.98l-6.3-6.3c2.3-2.72,3.69-6.23,3.69-10.07C31.23,7.01,24.23,0,15.62,0S0,7.01,0,15.62s7.01,15.61,15.62,15.61c3.84,0,7.35-1.39,10.07-3.69l6.3,6.29c.26.26.59.39.93.39s.67-.13.93-.39c.51-.51.51-1.34,0-1.85Zm-18.22-3.37c-7.17,0-13-5.83-13-13S8.45,2.62,15.62,2.62s13,5.83,13,13-5.83,13-13,13Z"/>
      <path class="cls-1" d="m22.54,15.62c0,.72-.59,1.31-1.31,1.31h-4.3v4.3c0,.72-.59,1.31-1.31,1.31s-1.31-.59-1.31-1.31v-4.3h-4.3c-.72,0-1.31-.59-1.31-1.31s.59-1.31,1.31-1.31h4.3v-4.31c0-.72.59-1.31,1.31-1.31s1.31.59,1.31,1.31v4.31h4.3c.72,0,1.31.59,1.31,1.31Z"/>
    </g>
  </g>
</svg>